<svg xmlns="http://www.w3.org/2000/svg" width="240" height="86" viewBox="0 0 240 86" role="img" aria-label="Audio waveform reference">
  <defs>
    <linearGradient id="g" x1="0" y1="0" x2="1" y2="1">
      <stop offset="0" stop-color="#1e1b4b"/>
      <stop offset="1" stop-color="#7c3aed"/>
    </linearGradient>
  </defs>
  <rect width="240" height="86" rx="6" fill="url(#g)"/>
  <g fill="#c4b5fd">
    <rect x="14" y="38" width="4" height="10" rx="2"/>
    <rect x="24" y="28" width="4" height="30" rx="2"/>
    <rect x="34" y="18" width="4" height="50" rx="2"/>
    <rect x="44" y="32" width="4" height="22" rx="2"/>
    <rect x="54" y="12" width="4" height="62" rx="2"/>
    <rect x="64" y="30" width="4" height="26" rx="2"/>
    <rect x="74" y="22" width="4" height="42" rx="2"/>
    <rect x="84" y="36" width="4" height="14" rx="2"/>
    <rect x="94" y="16" width="4" height="54" rx="2"/>
    <rect x="104" y="34" width="4" height="18" rx="2"/>
    <rect x="114" y="26" width="4" height="34" rx="2"/>
    <rect x="124" y="20" width="4" height="46" rx="2"/>
    <rect x="134" y="38" width="4" height="10" rx="2"/>
    <rect x="144" y="24" width="4" height="38" rx="2"/>
    <rect x="154" y="14" width="4" height="58" rx="2"/>
    <rect x="164" y="32" width="4" height="22" rx="2"/>
    <rect x="174" y="28" width="4" height="30" rx="2"/>
    <rect x="184" y="18" width="4" height="50" rx="2"/>
    <rect x="194" y="34" width="4" height="18" rx="2"/>
    <rect x="204" y="24" width="4" height="38" rx="2"/>
    <rect x="214" y="36" width="4" height="14" rx="2"/>
  </g>
</svg>
